<svg width="200" height="41" viewBox="0 0 200 41" fill="none" xmlns="http://www.w3.org/2000/svg">
<g id="Logo Color">
<path id="Path" d="M30.0279 18.1927C28.8996 19.3279 28.3357 20.9069 28.4897 22.5001L28.4632 22.4736C28.6215 24.3484 27.9452 26.1977 26.6148 27.5281C25.2844 28.8585 23.4351 29.5348 21.5603 29.3765L21.5868 29.403C19.3168 29.1917 17.158 30.4265 16.1893 32.4902C15.2205 34.554 15.6498 37.0036 17.2626 38.6149C18.8754 40.2262 21.3254 40.6533 23.3883 39.6827C25.4511 38.7121 26.6839 36.5522 26.4706 34.2824L26.4985 34.3089C26.3403 32.4341 27.0165 30.5848 28.347 29.2544C29.6774 27.924 31.5266 27.2477 33.4015 27.4059L33.3735 27.3795C35.8683 27.6038 38.1897 26.0827 38.9799 23.7057C39.7701 21.3287 38.8215 18.7205 36.689 17.4065C34.5564 16.0925 31.8001 16.4181 30.0323 18.1927H30.0279Z" fill="#5454D4"/>
<path id="Path_2" d="M18.725 25.5676L18.697 25.5412C20.2912 25.7018 21.8733 25.1381 23.0067 24.0055C24.1401 22.873 24.705 21.2914 24.5456 19.697L24.5735 19.7235C24.4153 17.8487 25.0915 15.9994 26.422 14.669C27.7524 13.3386 29.6016 12.6623 31.4765 12.8206L31.4485 12.7941C33.7187 13.0073 35.8788 11.7739 36.849 9.71044C37.8192 7.64698 37.3912 5.19669 35.7789 3.58436C34.1665 1.97204 31.7162 1.544 29.6528 2.51422C27.5893 3.48444 26.3559 5.64451 26.5691 7.9147L26.5426 7.88675C26.7014 9.76172 26.0253 11.6113 24.6948 12.9418C23.3642 14.2724 21.5147 14.9485 19.6397 14.7897L19.6662 14.8176C18.072 14.657 16.4899 15.2207 15.3565 16.3533C14.2231 17.4858 13.6582 19.0674 13.8176 20.6618L13.7912 20.6353C13.9489 22.51 13.2725 24.3589 11.9422 25.6892C10.6119 27.0195 8.76292 27.696 6.88823 27.5382L6.9147 27.5647C4.64451 27.3515 2.48444 28.5849 1.51422 30.6484C0.544004 32.7118 0.972035 35.1621 2.58436 36.7744C4.19669 38.3868 6.64698 38.8148 8.71044 37.8446C10.7739 36.8744 12.0073 34.7143 11.7941 32.4441L11.822 32.4706C11.6638 30.5957 12.3401 28.7465 13.6705 27.4161C15.0009 26.0856 16.8502 25.4094 18.725 25.5676Z" fill="#FF7143"/>
<path id="Path_3" d="M9.32353 22.9839C10.452 21.8488 11.0155 20.2696 10.8603 18.6765L10.8882 18.703C10.7298 16.8276 11.4065 14.9778 12.7376 13.6473C14.0687 12.3167 15.9188 11.6409 17.7941 11.8001L17.7662 11.7736C20.0356 11.9862 22.1946 10.7529 23.1642 8.6901C24.1339 6.62729 23.7058 4.17796 22.0941 2.56623C20.4824 0.954501 18.0331 0.526496 15.9703 1.49612C13.9074 2.46575 12.6742 4.62478 12.8868 6.89417L12.8603 6.8677C13.0186 8.74254 12.3423 10.5918 11.0119 11.9222C9.68144 13.2526 7.83218 13.9289 5.95735 13.7706L5.98382 13.7971C3.48912 13.5734 1.16818 15.095 0.378454 17.4719C-0.411274 19.8489 0.537647 22.4569 2.67022 23.7705C4.8028 25.0842 7.55886 24.7585 9.32647 22.9839H9.32353Z" fill="#5454D4"/>
<path id="Path_4" d="M54.8779 8.31628H59.2456V29.5707H54.8779V8.31628Z" fill="#19191B"/>
<path id="Shape" fill-rule="evenodd" clip-rule="evenodd" d="M66.461 15.1419C63.5786 16.3459 61.7066 19.169 61.7191 22.2927C61.704 24.3409 62.5131 26.3092 63.9643 27.7547C65.4156 29.2001 67.3871 30.0013 69.4353 29.978C72.559 29.978 75.3745 28.0946 76.567 25.2075C77.7595 22.3204 77.0937 18.9991 74.8804 16.7947C72.6672 14.5904 69.3433 13.9378 66.461 15.1419ZM69.3733 19.0359C71.2111 19.002 72.733 20.4553 72.7838 22.2927C72.8334 23.2036 72.4998 24.0937 71.8638 24.7476C71.2277 25.4016 70.3472 25.7597 69.4353 25.7353C67.5972 25.7354 66.1023 24.2544 66.0852 22.4164C66.0682 20.5783 67.5355 19.0698 69.3733 19.0359Z" fill="#19191B"/>
<path id="Shape_2" fill-rule="evenodd" clip-rule="evenodd" d="M94.5588 28.8368V15.0133L90.3074 15.0104V16.4956C89.2702 15.2266 87.6929 14.5244 86.0559 14.603C82.0626 14.7289 78.8906 18.0026 78.8906 21.9979C78.8906 25.9932 82.0626 29.2668 86.0559 29.3927C87.6929 29.4713 89.2702 28.7691 90.3074 27.5001V28.8309C90.3804 29.709 90.0506 30.5728 89.4107 31.1786C88.7709 31.7844 87.8904 32.0666 87.0176 31.9456C85.6371 32.0866 84.3141 31.3556 83.6985 30.1118L79.9721 32.2662C81.43 34.6416 84.0927 36.0037 86.8721 35.7956C90.7441 35.7956 94.5588 33.728 94.5588 28.8368ZM88.2334 18.6356C89.5473 19.2281 90.3689 20.56 90.3088 22.0001C90.336 22.9299 89.9688 23.8279 89.2978 24.4722C88.6269 25.1166 87.7147 25.4472 86.7868 25.3824C85.3455 25.3842 84.0479 24.5094 83.509 23.1726C82.9702 21.8358 83.2982 20.3057 84.3378 19.3074C85.3774 18.309 86.9195 18.0431 88.2334 18.6356Z" fill="#19191B"/>
<path id="Shape_3" fill-rule="evenodd" clip-rule="evenodd" d="M101.774 15.1419C98.8919 16.3459 97.0198 19.169 97.0323 22.2927C97.0172 24.3409 97.8263 26.3092 99.2776 27.7547C100.729 29.2001 102.7 30.0013 104.749 29.978C107.872 29.978 110.688 28.0946 111.88 25.2075C113.073 22.3204 112.407 18.9991 110.194 16.7947C107.98 14.5904 104.657 13.9378 101.774 15.1419ZM104.686 19.0359C106.524 19.002 108.046 20.4553 108.097 22.2927C108.147 23.2036 107.813 24.0937 107.177 24.7476C106.541 25.4016 105.66 25.7597 104.749 25.7353C102.91 25.7354 101.415 24.2544 101.398 22.4164C101.381 20.5783 102.849 19.0698 104.686 19.0359Z" fill="#19191B"/>
<path id="Shape_4" fill-rule="evenodd" clip-rule="evenodd" d="M116.119 8.69077C115.14 9.09639 114.501 10.0519 114.501 11.1119C114.516 12.5532 115.681 13.7181 117.122 13.7325C118.182 13.7325 119.138 13.094 119.543 12.1147C119.949 11.1355 119.725 10.0083 118.975 9.25884C118.226 8.50936 117.098 8.28515 116.119 8.69077ZM119.312 15.0133H114.943L114.937 29.5722H119.312V15.0133Z" fill="#19191B"/>
<path id="Shape_5" fill-rule="evenodd" clip-rule="evenodd" d="M136.289 27.5823C137.595 26.1398 138.273 24.236 138.171 22.2927C138.273 20.349 137.597 18.4446 136.29 17.0016C134.984 15.5587 133.156 14.6964 131.212 14.6059C129.573 14.5165 127.981 15.1682 126.875 16.3809V15.0133H122.507V35.3941H126.875V28.2015C127.98 29.4151 129.573 30.0674 131.212 29.978C133.156 29.8871 134.983 29.0249 136.289 27.5823ZM130.281 18.9152C132.183 18.8834 133.755 20.391 133.803 22.2927C133.869 23.2377 133.528 24.166 132.867 24.8442C132.206 25.5225 131.286 25.8863 130.34 25.8441C128.437 25.8443 126.891 24.3108 126.875 22.4086C126.859 20.5064 128.379 18.947 130.281 18.9152Z" fill="#19191B"/>
<path id="Path_5" d="M151.649 25.203C151.649 28.5516 148.738 29.978 145.594 29.978C142.995 30.2135 140.515 28.8408 139.334 26.5133L143.118 24.3589C143.433 25.4425 144.463 26.1583 145.588 26.0766C146.635 26.0766 147.16 25.756 147.16 25.1751C147.16 23.5722 139.997 24.4177 139.997 19.381C139.997 16.206 142.676 14.606 145.704 14.606C148.023 14.5326 150.197 15.7259 151.381 17.7207L147.654 19.7295C147.32 18.9499 146.553 18.4456 145.704 18.4486C144.947 18.4486 144.481 18.7427 144.481 19.2633C144.487 20.9236 151.649 19.8163 151.649 25.203Z" fill="#19191B"/>
<path id="Path_6" d="M167.603 15.0133V29.5721H163.235V28.203C162.213 29.4285 160.665 30.0892 159.074 29.9795C156.132 29.9795 153.632 27.8839 153.632 23.9501V15.0133H158V23.3104C157.926 24.0122 158.165 24.711 158.653 25.2209C159.14 25.7308 159.828 26.0002 160.532 25.9574C162.134 25.9574 163.24 25.0265 163.24 22.9589V15.0177L167.603 15.0133Z" fill="#19191B"/>
<path id="Path_7" d="M192.647 20.6324V29.5706H188.279V21.0104C188.279 19.5545 187.581 18.6236 186.184 18.6236C184.728 18.6236 183.912 19.6427 183.912 21.3604V29.5706H179.546V21.0104C179.546 19.5545 178.847 18.6236 177.449 18.6236C175.993 18.6236 175.178 19.6427 175.178 21.3604V29.5706H170.81V15.0118H175.178V16.3501C176.098 15.1437 177.567 14.4864 179.079 14.6045C180.6 14.5301 182.047 15.2593 182.893 16.5251C183.876 15.2018 185.471 14.4765 187.115 14.6045C190.457 14.6059 192.647 16.9927 192.647 20.6324Z" fill="#19191B"/>
<path id="Oval" d="M196.341 14.9236C198.131 14.9236 199.582 13.4725 199.582 11.6825C199.582 9.89241 198.131 8.44128 196.341 8.44128C194.551 8.44128 193.1 9.89241 193.1 11.6825C193.1 13.4725 194.551 14.9236 196.341 14.9236Z" fill="#19191B"/>
</g>
</svg>
